<?xml version="1.0" encoding="UTF-8" standalone="no"?>
<svg
   width="405.53326mm"
   height="293.41504mm"
   viewBox="0 0 405.53327 293.41504"
   version="1.1"
   id="svg8"
   inkscape:version="1.1.2 (b8e25be833, 2022-02-05)"
   sodipodi:docname="airflow_over_wave.svg"
   xmlns:inkscape="http://www.inkscape.org/namespaces/inkscape"
   xmlns:sodipodi="http://sodipodi.sourceforge.net/DTD/sodipodi-0.dtd"
   xmlns="http://www.w3.org/2000/svg"
   xmlns:svg="http://www.w3.org/2000/svg"
   xmlns:rdf="http://www.w3.org/1999/02/22-rdf-syntax-ns#"
   xmlns:cc="http://creativecommons.org/ns#"
   xmlns:dc="http://purl.org/dc/elements/1.1/">
  <defs
     id="defs2">
    <inkscape:path-effect
       effect="bspline"
       id="path-effect1006"
       is_visible="true"
       weight="33.333333"
       steps="2"
       helper_size="0"
       apply_no_weight="true"
       apply_with_weight="true"
       only_selected="false"
       lpeversion="0" />
    <inkscape:path-effect
       effect="bspline"
       id="path-effect1002"
       is_visible="true"
       weight="33.333333"
       steps="2"
       helper_size="0"
       apply_no_weight="true"
       apply_with_weight="true"
       only_selected="false"
       lpeversion="0" />
    <inkscape:path-effect
       only_selected="false"
       apply_with_weight="true"
       apply_no_weight="true"
       helper_size="0"
       steps="2"
       weight="33.333333"
       is_visible="true"
       id="path-effect998"
       effect="bspline"
       lpeversion="0" />
    <inkscape:path-effect
       effect="spiro"
       id="path-effect1109"
       is_visible="true"
       lpeversion="0" />
    <inkscape:path-effect
       effect="spiro"
       id="path-effect1105"
       is_visible="true"
       lpeversion="0" />
    <inkscape:path-effect
       effect="spiro"
       id="path-effect1101"
       is_visible="true"
       lpeversion="0" />
    <inkscape:path-effect
       effect="spiro"
       id="path-effect1097"
       is_visible="true"
       lpeversion="0" />
    <inkscape:path-effect
       is_visible="true"
       id="path-effect1093"
       effect="spiro"
       lpeversion="0" />
    <inkscape:path-effect
       is_visible="true"
       id="path-effect1089"
       effect="spiro"
       lpeversion="0" />
    <inkscape:path-effect
       is_visible="true"
       id="path-effect1085"
       effect="spiro"
       lpeversion="0" />
    <inkscape:path-effect
       is_visible="true"
       id="path-effect1081"
       effect="spiro"
       lpeversion="0" />
    <inkscape:path-effect
       effect="spiro"
       id="path-effect1077"
       is_visible="true"
       lpeversion="0" />
    <inkscape:path-effect
       effect="spiro"
       id="path-effect1073"
       is_visible="true"
       lpeversion="0" />
    <inkscape:path-effect
       effect="spiro"
       id="path-effect1069"
       is_visible="true"
       lpeversion="0" />
    <inkscape:path-effect
       effect="spiro"
       id="path-effect1065"
       is_visible="true"
       lpeversion="0" />
    <inkscape:path-effect
       effect="spiro"
       id="path-effect1061"
       is_visible="true"
       lpeversion="0" />
    <inkscape:path-effect
       effect="bspline"
       id="path-effect1779"
       is_visible="true"
       weight="33.333333"
       steps="2"
       helper_size="0"
       apply_no_weight="true"
       apply_with_weight="true"
       only_selected="false"
       lpeversion="0" />
    <inkscape:path-effect
       effect="bspline"
       id="path-effect1675"
       is_visible="true"
       weight="33.333333"
       steps="2"
       helper_size="0"
       apply_no_weight="true"
       apply_with_weight="true"
       only_selected="false"
       lpeversion="0" />
    <inkscape:path-effect
       effect="bspline"
       id="path-effect1541"
       is_visible="true"
       weight="33.333333"
       steps="2"
       helper_size="0"
       apply_no_weight="true"
       apply_with_weight="true"
       only_selected="false"
       lpeversion="0" />
    <inkscape:path-effect
       effect="bspline"
       id="path-effect1537"
       is_visible="true"
       weight="33.333333"
       steps="2"
       helper_size="0"
       apply_no_weight="true"
       apply_with_weight="true"
       only_selected="false"
       lpeversion="0" />
    <inkscape:path-effect
       only_selected="false"
       apply_with_weight="true"
       apply_no_weight="true"
       helper_size="0"
       steps="2"
       weight="33.333333"
       is_visible="true"
       id="path-effect1009"
       effect="bspline"
       lpeversion="0" />
    <clipPath
       clipPathUnits="userSpaceOnUse"
       id="clipPath1">
      <path
         d="M 0,0 H 2303 V 775 H 0 Z"
         id="path3"
         inkscape:connector-curvature="0" />
    </clipPath>
    <clipPath
       clipPathUnits="userSpaceOnUse"
       id="clipPath1-8">
      <path
         d="M 0,0 H 2303 V 1295 H 0 Z"
         id="path3-6"
         inkscape:connector-curvature="0" />
    </clipPath>
    <clipPath
       id="clipPath2"
       clipPathUnits="userSpaceOnUse">
      <path
         id="path6"
         d="M 0,1510 H 54 V 0 H 0 Z"
         inkscape:connector-curvature="0" />
    </clipPath>
    <clipPath
       clipPathUnits="userSpaceOnUse"
       id="clipPath853">
      <path
         d="M 0,0 H 2303 V 1295 H 0 Z"
         id="path851"
         inkscape:connector-curvature="0" />
    </clipPath>
    <clipPath
       clipPathUnits="userSpaceOnUse"
       id="clipPath831">
      <path
         d="M 0,0 H 2303 V 775 H 0 Z"
         id="path829"
         inkscape:connector-curvature="0" />
    </clipPath>
    <inkscape:path-effect
       effect="bspline"
       id="path-effect1830"
       is_visible="true"
       weight="33.333333"
       steps="2"
       helper_size="0"
       apply_no_weight="true"
       apply_with_weight="true"
       only_selected="false"
       lpeversion="0" />
    <inkscape:path-effect
       only_selected="false"
       apply_with_weight="true"
       apply_no_weight="true"
       helper_size="0"
       steps="2"
       weight="33.333333"
       is_visible="true"
       id="path-effect1770"
       effect="bspline"
       lpeversion="0" />
    <inkscape:path-effect
       effect="bspline"
       id="path-effect846"
       is_visible="true"
       weight="33.333333"
       steps="2"
       helper_size="0"
       apply_no_weight="true"
       apply_with_weight="true"
       only_selected="false"
       lpeversion="0" />
    <inkscape:path-effect
       only_selected="false"
       apply_with_weight="true"
       apply_no_weight="true"
       helper_size="0"
       steps="2"
       weight="33.333333"
       is_visible="true"
       id="path-effect842"
       effect="bspline"
       lpeversion="0" />
    <inkscape:path-effect
       effect="bspline"
       id="path-effect838"
       is_visible="true"
       weight="33.333333"
       steps="2"
       helper_size="0"
       apply_no_weight="true"
       apply_with_weight="true"
       only_selected="false"
       lpeversion="0" />
    <inkscape:path-effect
       only_selected="false"
       apply_with_weight="true"
       apply_no_weight="true"
       helper_size="0"
       steps="2"
       weight="33.333333"
       is_visible="true"
       id="path-effect4639"
       effect="bspline"
       lpeversion="0" />
    <clipPath
       clipPathUnits="userSpaceOnUse"
       id="clipPath853-8">
      <path
         d="M 0,0 H 2303 V 1295 H 0 Z"
         id="path851-8"
         inkscape:connector-curvature="0" />
    </clipPath>
    <defs
       id="defs3767">
      <clipPath
         id="clipPath3765"
         clipPathUnits="userSpaceOnUse">
        <path
           inkscape:connector-curvature="0"
           id="path3763"
           d="M 0,0 H 2303 V 1295 H 0 Z" />
      </clipPath>
    </defs>
    <inkscape:path-effect
       only_selected="false"
       apply_with_weight="true"
       apply_no_weight="true"
       helper_size="0"
       steps="2"
       weight="33.333333"
       is_visible="true"
       id="path-effect1009-0"
       effect="bspline"
       lpeversion="0" />
    <clipPath
       id="clipPath1441"
       clipPathUnits="userSpaceOnUse">
      <path
         inkscape:connector-curvature="0"
         id="path1439"
         d="M 0,0 H 2303 V 1295 H 0 Z" />
    </clipPath>
    <inkscape:path-effect
       effect="bspline"
       id="path-effect1830-6"
       is_visible="true"
       weight="33.333333"
       steps="2"
       helper_size="0"
       apply_no_weight="true"
       apply_with_weight="true"
       only_selected="false"
       lpeversion="0" />
    <inkscape:path-effect
       only_selected="false"
       apply_with_weight="true"
       apply_no_weight="true"
       helper_size="0"
       steps="2"
       weight="33.333333"
       is_visible="true"
       id="path-effect1770-3"
       effect="bspline"
       lpeversion="0" />
    <inkscape:path-effect
       effect="bspline"
       id="path-effect846-8"
       is_visible="true"
       weight="33.333333"
       steps="2"
       helper_size="0"
       apply_no_weight="true"
       apply_with_weight="true"
       only_selected="false"
       lpeversion="0" />
    <inkscape:path-effect
       only_selected="false"
       apply_with_weight="true"
       apply_no_weight="true"
       helper_size="0"
       steps="2"
       weight="33.333333"
       is_visible="true"
       id="path-effect842-4"
       effect="bspline"
       lpeversion="0" />
    <inkscape:path-effect
       effect="bspline"
       id="path-effect838-7"
       is_visible="true"
       weight="33.333333"
       steps="2"
       helper_size="0"
       apply_no_weight="true"
       apply_with_weight="true"
       only_selected="false"
       lpeversion="0" />
    <inkscape:path-effect
       only_selected="false"
       apply_with_weight="true"
       apply_no_weight="true"
       helper_size="0"
       steps="2"
       weight="33.333333"
       is_visible="true"
       id="path-effect4639-4"
       effect="bspline"
       lpeversion="0" />
    <clipPath
       clipPathUnits="userSpaceOnUse"
       id="clipPath853-5">
      <path
         d="M 0,0 H 2303 V 1295 H 0 Z"
         id="path851-82"
         inkscape:connector-curvature="0" />
    </clipPath>
    <defs
       id="defs3767-4">
      <clipPath
         id="clipPath3765-7"
         clipPathUnits="userSpaceOnUse">
        <path
           inkscape:connector-curvature="0"
           id="path3763-9"
           d="M 0,0 H 2303 V 1295 H 0 Z" />
      </clipPath>
    </defs>
    <inkscape:path-effect
       only_selected="false"
       apply_with_weight="true"
       apply_no_weight="true"
       helper_size="0"
       steps="2"
       weight="33.333333"
       is_visible="true"
       id="path-effect1009-4"
       effect="bspline"
       lpeversion="0" />
    <clipPath
       id="clipPath1612"
       clipPathUnits="userSpaceOnUse">
      <path
         inkscape:connector-curvature="0"
         id="path1610"
         d="M 0,0 H 2303 V 1295 H 0 Z" />
    </clipPath>
  </defs>
  <sodipodi:namedview
     id="base"
     pagecolor="#ffffff"
     bordercolor="#666666"
     borderopacity="1.0"
     inkscape:pageopacity="0.0"
     inkscape:pageshadow="2"
     inkscape:zoom="0.24748737"
     inkscape:cx="345.47217"
     inkscape:cy="1095.0054"
     inkscape:document-units="mm"
     inkscape:current-layer="layer1"
     showgrid="false"
     fit-margin-top="0"
     fit-margin-left="0"
     fit-margin-right="0"
     fit-margin-bottom="0"
     inkscape:window-width="1920"
     inkscape:window-height="1129"
     inkscape:window-x="-8"
     inkscape:window-y="-8"
     inkscape:window-maximized="1"
     inkscape:document-rotation="0"
     inkscape:pagecheckerboard="0" />
  <metadata
     id="metadata5">
    <rdf:RDF>
      <cc:Work
         rdf:about="">
        <dc:format>image/svg+xml</dc:format>
        <dc:type
           rdf:resource="http://purl.org/dc/dcmitype/StillImage" />
        <dc:title />
      </cc:Work>
    </rdf:RDF>
  </metadata>
  <g
     inkscape:label="Layer 1"
     inkscape:groupmode="layer"
     id="layer1"
     transform="translate(616.6488,848.54724)">
    <path
       style="fill:none;stroke:#646464;stroke-width:1;stroke-linecap:round;stroke-linejoin:miter;stroke-miterlimit:4;stroke-dasharray:4, 4;stroke-dashoffset:0;stroke-opacity:1"
       d="m -612.35325,-595.41935 c 15.54816,-0.79955 31.09677,-1.59911 45.64805,-2.29063 14.55127,-0.69152 28.10604,-1.27504 38.02506,-1.67067 9.91902,-0.39563 16.20279,-0.6034 21.52481,-0.68295 5.32202,-0.0796 9.68282,-0.0309 14.43903,0.0848 4.75621,0.11569 9.90864,0.29842 15.40915,0.62106 5.50052,0.32263 11.34997,0.7852 17.5302,1.41442 6.18023,0.62922 12.69196,1.42516 18.314,2.23806 5.62205,0.81291 10.35486,1.64284 14.98053,2.63771 4.62568,0.99487 9.14457,2.15476 13.37982,3.0744 4.23525,0.91965 8.18704,1.59913 12.10312,2.33349 3.91609,0.73436 7.79675,1.52366 12.18325,2.2099 4.38649,0.68624 9.27914,1.2695 15.47346,1.87702 6.19431,0.60752 13.6909,1.23938 21.63235,1.86188 7.94144,0.62251 16.32844,1.23572 23.48101,1.7201 7.15257,0.48438 13.07123,0.83997 19.4673,1.1362 6.39607,0.29623 13.27018,0.53314 20.67731,0.64326 7.40713,0.11012 15.29993,0.0936 21.51271,-0.005 6.21278,-0.0986 10.72204,-0.27905 16.68578,-0.67126 5.96375,-0.39221 13.38307,-0.9962 19.92244,-1.62067 6.53937,-0.62446 12.19976,-1.26949 17.85964,-1.91446"
       id="path996"
       inkscape:connector-curvature="0"
       inkscape:path-effect="#path-effect998"
       inkscape:original-d="m -612.35325,-595.41935 c 15.54817,-0.79927 31.09678,-1.59884 46.64475,-2.39865 13.55457,-0.5836 27.10934,-1.16711 40.66361,-1.75051 6.28377,-0.20786 12.56754,-0.41563 18.85091,-0.62329 4.36067,0.0485 8.72147,0.0972 13.0818,0.14596 5.15209,0.18262 10.30452,0.36536 15.45638,0.54818 5.84918,0.46243 11.69863,0.92499 17.54755,1.38765 6.51155,0.79578 13.02328,1.59172 19.53453,2.38773 4.73284,0.82979 9.46565,1.65972 14.19808,2.48972 4.51894,1.15973 9.03783,2.31961 13.55634,3.47956 3.95197,0.67936 7.90376,1.35885 11.85524,2.03841 3.8807,0.78916 7.76136,1.57844 11.64165,2.36781 4.89269,0.58313 9.78534,1.16639 14.67761,1.74973 7.49635,0.63172 14.99294,1.26357 22.48901,1.8955 8.38682,0.61308 16.77382,1.22629 25.16033,1.83958 5.91863,0.35548 11.83729,0.71107 17.75553,1.06674 6.87389,0.2368 13.748,0.4737 20.6216,0.7107 7.94102,0.15715 15.83346,-0.0333 23.74979,-0.0498 4.50923,-0.18059 9.01849,-0.36109 13.52734,-0.54148 7.41863,-0.60401 14.83795,-1.208 22.25653,-1.81186 5.6602,-0.64471 11.32059,-1.28974 16.98044,-1.935"
       sodipodi:nodetypes="ccccccccccccccccccccc" />
    <path
       style="opacity:0.25;fill:#4d4d4d;fill-opacity:1;stroke:none;stroke-width:1;stroke-linecap:butt;stroke-linejoin:miter;stroke-miterlimit:4;stroke-dasharray:none;stroke-opacity:1"
       d="m -213.74194,-707.10609 c -14.7243,-4.90842 -29.44919,-9.81703 -41.39914,-10.89034 -11.94995,-1.07331 -21.1266,1.68859 -28.83269,3.02493 -7.70609,1.33634 -13.94248,1.24726 -20.00065,-0.40088 -6.05816,-1.64815 -11.93823,-4.85546 -19.02073,-7.08267 -7.0825,-2.22722 -15.36824,-3.47454 -22.80699,-2.62825 -7.43875,0.84629 -14.0314,3.78626 -20.26785,2.22726 -6.23645,-1.55899 -12.11669,-7.61742 -17.95177,-9.93364 -5.83507,-2.31621 -11.62621,-0.89071 -17.50599,0.62378 -5.87978,1.51449 -11.84894,3.11815 -17.77343,2.85093 -5.92448,-0.26722 -11.80501,-2.40559 -15.14561,-1.96022 -3.34061,0.44537 -4.14243,3.47448 -9.97774,4.00917 -5.83531,0.53468 -16.70463,-1.42537 -26.9052,-1.60355 -10.20058,-0.17819 -19.73317,1.42543 -21.64803,2.66937 -1.91486,1.24394 3.87474,2.14155 7.77243,2.40878 3.89768,0.26723 5.94683,-0.0891 10.53437,0.64576 4.58754,0.73491 11.71578,2.56152 18.66467,4.83328 6.9489,2.27177 13.7199,4.98908 20.06746,8.26308 6.34755,3.27401 12.27215,7.10495 19.55521,11.29215 7.28306,4.1872 15.92487,8.73084 24.70021,12.31669 8.77534,3.58585 17.68443,6.21403 29.28825,8.88669 11.60383,2.67267 25.90303,5.38996 40.42458,7.37219 14.52156,1.98223 29.26615,3.2295 40.93687,3.36312 11.67073,0.13362 20.26804,-0.84639 30.79096,-3.02179 10.52292,-2.1754 22.9724,-5.5464 29.31846,-7.10884 6.34606,-1.56245 6.58883,-1.31706 6.83186,-1.07141"
       id="path1535"
       inkscape:connector-curvature="0"
       sodipodi:nodetypes="cccccccccccccccccccccccccc"
       inkscape:original-d="m -213.74194,-707.10609 c -14.72435,-4.90826 -29.44924,-9.81688 -44.17315,-14.72534 -9.17599,2.76151 -18.35264,5.52342 -27.52876,8.28535 -6.23601,-0.0894 -12.4724,-0.17845 -18.70887,-0.26725 -5.87968,-3.20752 -11.75975,-6.41483 -17.6398,-9.62171 -8.28508,-1.24754 -16.57082,-2.49486 -24.85607,-3.74179 -6.59235,2.93971 -13.185,5.87968 -19.77792,8.81991 -5.87967,-6.05837 -11.75991,-12.1168 -17.63979,-18.17433 -5.79057,1.42518 -11.58172,2.85067 -17.37252,4.2763 -5.96876,1.60335 -11.93792,3.20701 -17.90705,4.81087 -5.87968,-2.13842 -11.7602,-4.27681 -17.6398,-6.41448 -0.80155,3.02879 -1.60337,6.0579 -2.40543,9.08716 -10.86869,-1.96024 -21.73801,-3.92027 -32.60688,-5.87994 -9.53236,1.60338 -19.06496,3.20698 -28.59783,4.81087 5.70219,0.89066 11.49284,1.78152 17.23887,2.67268 2.04925,-0.35661 4.0984,-0.71298 6.1472,-1.06908 7.1264,1.82581 14.25464,3.65242 21.38156,5.47903 6.77092,2.7169 13.54192,5.43422 20.31248,8.15172 5.92462,3.83052 11.84922,7.66146 17.77343,11.49259 8.64188,4.54327 17.28369,9.0869 25.92514,13.63075 8.90915,2.62785 17.81824,5.25603 26.72696,7.88445 14.2989,2.71692 28.5981,5.43421 42.89675,8.15172 14.74442,1.24697 29.48901,2.49425 44.23311,3.74177 8.5973,-0.98024 17.19461,-1.96024 25.79151,-2.93996 12.44906,-3.37054 24.89854,-6.74153 37.34728,-10.11266 0.24329,0.24592 0.72909,0.73696 0.72909,0.73696"
       inkscape:path-effect="#path-effect1537" />
    <path
       style="fill:#4a7fd4;fill-opacity:0.196078;stroke:none;stroke-width:0.264583px;stroke-linecap:butt;stroke-linejoin:miter;stroke-opacity:1"
       d="m -214.4372,-555.66674 -401.06908,0.53454 0.35748,-158.24981 v 0 l 55.82839,-7.33579 44.11364,-4.67819 23.51972,0.53454 29.93419,4.81085 28.8651,12.2944 28.33058,17.10525 21.38156,8.55263 41.42676,9.62171 36.08139,6.41445 31.5378,-0.53454 56.91894,-10.10088 c 1.74631,-0.0698 3.43708,-11.17412 3.39481,13.74211 -0.0386,22.75114 -1.23892,23.91876 -0.62128,107.28873 z"
       id="path1832"
       inkscape:connector-curvature="0"
       sodipodi:nodetypes="cccccccccccccccsc" />
    <path
       style="fill:none;stroke:#31688e;stroke-width:2;stroke-linecap:round;stroke-linejoin:miter;stroke-miterlimit:4;stroke-dasharray:none;stroke-dashoffset:0;stroke-opacity:1"
       d="m -615.15518,-837.96878 c 15.54816,-0.79955 31.09677,-1.59911 45.64805,-2.29063 14.55127,-0.69152 28.10604,-1.27504 38.02506,-1.67067 9.91902,-0.39563 16.20279,-0.6034 21.52481,-0.68295 5.32202,-0.0796 9.68282,-0.0309 14.43903,0.0848 4.75621,0.11569 9.90864,0.29842 15.40915,0.62106 5.50052,0.32263 11.34997,0.7852 17.5302,1.41442 6.18023,0.62922 12.69196,1.42516 18.314,2.23806 5.62205,0.81291 10.35486,1.64284 14.98053,2.63771 4.62568,0.99487 9.14457,2.15476 13.37982,3.0744 4.23525,0.91965 8.18704,1.59913 12.10312,2.33349 3.91609,0.73436 7.79675,1.52366 12.18325,2.2099 4.38649,0.68624 9.27914,1.2695 15.47346,1.87702 6.19431,0.60752 13.6909,1.23938 21.63235,1.86188 7.94144,0.62251 16.32844,1.23572 23.48101,1.7201 7.15257,0.48438 13.07123,0.83997 19.4673,1.1362 6.39607,0.29623 13.27018,0.53314 20.67731,0.64326 7.40713,0.11012 15.29993,0.0936 21.51271,-0.005 6.21278,-0.0985 10.72204,-0.27905 16.68578,-0.67126 5.96375,-0.39221 13.38307,-0.9962 19.92244,-1.62067 6.53937,-0.62446 12.19976,-1.26949 17.85964,-1.91446"
       id="path840"
       inkscape:connector-curvature="0"
       inkscape:path-effect="#path-effect842"
       inkscape:original-d="m -615.15518,-837.96878 c 15.54817,-0.79927 31.09678,-1.59884 46.64475,-2.39865 13.55457,-0.5836 27.10934,-1.16711 40.66361,-1.75051 6.28377,-0.20786 12.56754,-0.41563 18.85091,-0.62329 4.36067,0.0485 8.72147,0.0972 13.0818,0.14596 5.15209,0.18262 10.30452,0.36536 15.45638,0.54818 5.84918,0.46243 11.69863,0.92499 17.54755,1.38765 6.51155,0.79578 13.02328,1.59172 19.53453,2.38773 4.73284,0.82979 9.46565,1.65972 14.19808,2.48972 4.51894,1.15973 9.03783,2.31961 13.55634,3.47956 3.95197,0.67936 7.90376,1.35885 11.85524,2.03841 3.8807,0.78916 7.76136,1.57844 11.64165,2.36781 4.89269,0.58313 9.78534,1.16639 14.67761,1.74973 7.49635,0.63172 14.99294,1.26357 22.48901,1.8955 8.38682,0.61308 16.77382,1.22629 25.16033,1.83958 5.91863,0.35548 11.83729,0.71107 17.75553,1.06674 6.87389,0.2368 13.748,0.4737 20.6216,0.7107 7.94102,0.15715 15.83346,-0.0333 23.74979,-0.0498 4.50923,-0.18059 9.01849,-0.36109 13.52734,-0.54148 7.41863,-0.60401 14.83795,-1.208 22.25653,-1.81186 5.6602,-0.64471 11.32059,-1.28974 16.98044,-1.935"
       sodipodi:nodetypes="ccccccccccccccccccccc" />
    <path
       style="fill:none;stroke:#440154;stroke-width:3;stroke-linecap:round;stroke-linejoin:miter;stroke-miterlimit:4;stroke-dasharray:none;stroke-opacity:1"
       d="m -615.1488,-713.38201 c 15.54605,-2.31024 31.09253,-4.62054 45.64275,-6.57373 14.55022,-1.9532 28.10499,-3.54939 38.024,-4.63163 9.91902,-1.08224 16.20279,-1.65059 21.5248,-1.86819 5.322,-0.21761 9.6828,-0.0845 14.439,0.23195 4.7562,0.31646 9.90863,0.81633 15.40913,1.69889 5.5005,0.88255 11.34995,2.14792 17.53017,3.86914 6.18021,1.72123 12.69195,3.89851 18.31397,6.12219 5.62202,2.22369 10.35483,4.49395 14.98048,7.2154 4.62565,2.72145 9.14455,5.8943 13.37982,8.41003 4.23527,2.51574 8.18706,4.37445 12.10314,6.38329 3.91608,2.00883 7.79674,4.16793 12.18326,6.04517 4.38653,1.87724 9.27918,3.47273 15.4735,5.13462 6.19433,1.66188 13.69092,3.39031 21.63237,5.09317 7.94145,1.70286 16.32845,3.3803 23.48102,4.70533 7.15258,1.32503 13.07124,2.29775 19.46732,3.10809 6.39607,0.81034 13.27018,1.4584 21.23446,1.73727 7.96428,0.27888 16.97006,0.1891 23.7397,-0.10279 6.76965,-0.29189 11.27883,-0.78564 17.24271,-1.85856 5.96388,-1.07292 13.38293,-2.72506 19.50113,-4.38127 6.1182,-1.65621 10.93611,-3.3166 15.75364,-4.97686"
       id="path4637"
       inkscape:connector-curvature="0"
       inkscape:path-effect="#path-effect4639"
       inkscape:original-d="m -615.1488,-713.38201 c 15.54609,-2.30994 31.09257,-4.62024 46.63837,-6.93075 13.55457,-1.59641 27.10934,-3.1926 40.66361,-4.78851 6.28377,-0.56858 12.56754,-1.13693 18.85091,-1.70499 4.36067,0.13282 8.72147,0.26591 13.0818,0.39927 5.15209,0.49955 10.30452,0.99942 15.45638,1.49953 5.84918,1.26498 11.69863,2.53034 17.54755,3.79592 6.51155,2.17687 13.02328,4.35416 19.53453,6.53163 4.73284,2.26989 9.46565,4.54015 14.19808,6.81063 4.51894,3.17243 9.03783,6.34529 13.55634,9.51833 3.95197,1.8584 7.90376,3.71712 11.85524,5.57608 3.8807,2.15872 7.76136,4.31782 11.64165,6.47713 4.89269,1.59516 9.78534,3.19066 14.67761,4.78638 7.49635,1.72805 14.99294,3.45648 22.48901,5.18512 8.38682,1.67709 16.77382,3.35453 25.16033,5.03219 5.91863,0.9724 11.83729,1.94512 17.75553,2.91807 6.87389,0.64775 13.748,1.2958 20.6216,1.9441 9.05493,-0.09 18.06071,-0.17977 27.09066,-0.27005 4.50937,-0.49348 9.01855,-0.98723 13.52734,-1.48123 7.41901,-1.65182 14.83806,-3.30397 22.25653,-4.95631 4.81797,-1.66006 9.63588,-3.32045 14.4533,-4.98103"
       sodipodi:nodetypes="ccccccccccccccccccccc" />
    <path
       sodipodi:nodetypes="ccccccccccccccccccccc"
       inkscape:original-d="m -614.58822,-783.3818 c 15.3592,-0.99707 30.71882,-1.99444 46.07779,-2.99205 13.55457,-0.84529 27.10934,-1.69046 40.66361,-2.53548 6.28377,-0.30106 12.56754,-0.602 18.85091,-0.90278 4.36067,0.0703 8.72147,0.1408 13.0818,0.21141 5.15209,0.26451 10.30452,0.52919 15.45638,0.79399 5.84918,0.6698 11.69863,1.33979 17.54755,2.00991 6.51155,1.15263 13.02328,2.30549 19.53453,3.45844 4.73284,1.20189 9.46565,2.40398 14.19808,3.60618 4.51894,1.67977 9.03783,3.35978 13.55634,5.03987 3.95197,0.98401 7.90376,1.96819 11.85524,2.95249 3.8807,1.14303 7.76136,2.28625 11.64165,3.42959 4.89269,0.84462 9.78534,1.68943 14.67761,2.53435 7.49635,0.91499 14.99294,1.83018 22.48901,2.74548 8.38682,0.888 16.77382,1.77619 25.16033,2.6645 5.91863,0.51488 11.83729,1.02993 17.75553,1.54509 6.87389,0.34298 13.748,0.68612 20.6216,1.02939 7.94102,0.22762 15.83346,-0.0483 23.74979,-0.0722 4.50923,-0.26157 9.01849,-0.52301 13.52734,-0.7843 7.41863,-0.87486 14.83795,-1.74969 22.25653,-2.62433 5.57113,-1.04459 11.14242,-2.08953 16.71317,-3.13468"
       inkscape:path-effect="#path-effect1541"
       inkscape:connector-curvature="0"
       id="path1539"
       d="m -614.58822,-783.3818 c 15.35918,-0.99734 30.7188,-1.99472 45.17558,-2.91597 14.45679,-0.92124 28.01156,-1.76642 37.93058,-2.33946 9.91902,-0.57303 16.20279,-0.87397 21.5248,-0.98919 5.32202,-0.11522 9.68282,-0.0447 14.43902,0.12282 4.75621,0.16756 9.90864,0.43224 15.40916,0.89955 5.50051,0.46731 11.34996,1.13731 17.53019,2.04869 6.18023,0.91137 12.69196,2.06423 18.31399,3.24166 5.62204,1.17742 10.35485,2.37951 14.98052,3.82051 4.62567,1.441 9.14456,3.121 13.37982,4.45304 4.23525,1.33205 8.18704,2.31622 12.10313,3.37989 3.91608,1.06366 7.79674,2.20689 12.18324,3.20086 4.38651,0.99397 9.27916,1.83878 15.47347,2.71873 6.19432,0.87995 13.69091,1.79514 21.63236,2.69679 7.94144,0.90165 16.32844,1.78984 23.48101,2.49143 7.15258,0.70159 13.07124,1.21663 19.4673,1.6457 6.39607,0.42907 13.27018,0.77221 20.67711,0.9317 7.40693,0.15949 15.30014,0.1355 21.51292,-0.007 6.21279,-0.14275 10.72205,-0.40419 16.68579,-0.97228 5.96374,-0.56808 13.38306,-1.44292 19.87788,-2.40274 6.49482,-0.95982 12.06611,-2.00475 17.63692,-3.0496"
       style="fill:none;stroke:#31688e;stroke-width:2;stroke-linecap:round;stroke-linejoin:miter;stroke-miterlimit:4;stroke-dasharray:none;stroke-dashoffset:0;stroke-opacity:1" />
    <path
       style="fill:none;stroke:#000000;stroke-width:0.5;stroke-linecap:butt;stroke-linejoin:miter;stroke-miterlimit:4;stroke-dasharray:none;stroke-opacity:1"
       d="m -403.82881,-714.1868 c 1.80629,-1.86972 4.40801,-2.94437 7.00725,-2.89438 2.59924,0.05 5.15771,1.22388 6.89078,3.16167 1.13419,1.26817 1.90481,2.81351 2.62918,4.35296 0.72438,1.53945 1.42486,3.10828 2.44894,4.46692 1.30855,1.73604 3.13197,3.07894 5.17808,3.81351 2.0461,0.73457 4.30729,0.85808 6.42124,0.35073 2.11394,-0.50735 4.07277,-1.64366 5.56262,-3.22685 1.48984,-1.5832 2.50516,-3.60739 2.88326,-5.74823"
       id="path1059"
       inkscape:connector-curvature="0"
       inkscape:path-effect="#path-effect1061"
       inkscape:original-d="m -403.82881,-714.1868 c 4.63293,0.0888 9.2656,0.17794 13.89803,0.26729 4.6324,0.0893 3.38566,5.87965 5.07812,8.81988 1.69243,2.94024 13.36373,-3.20749 20.0452,-4.81084" />
    <path
       style="fill:none;stroke:#000000;stroke-width:0.5;stroke-linecap:butt;stroke-linejoin:miter;stroke-miterlimit:4;stroke-dasharray:none;stroke-opacity:1"
       d="m -350.10763,-714.98859 c 4.10603,-1.94344 8.93885,-2.30057 13.28594,-0.98179 4.3471,1.31878 8.1669,4.30086 10.50105,8.19806 1.36314,2.27596 2.2362,4.90416 2.11724,7.55444 -0.0595,1.32514 -0.36821,2.64356 -0.94855,3.83634 -0.58035,1.19279 -1.43544,2.25724 -2.50504,3.04177 -1.32948,0.97515 -2.98319,1.50009 -4.63168,1.47025 -1.6485,-0.0298 -3.28212,-0.61429 -4.57544,-1.63691 -1.29332,-1.02262 -2.23875,-2.47743 -2.64796,-4.07461 -0.4092,-1.59718 -0.27978,-3.32737 0.36248,-4.8459"
       id="path1063"
       inkscape:connector-curvature="0"
       inkscape:path-effect="#path-effect1065"
       inkscape:original-d="m -350.10763,-714.98859 c 7.92924,2.40514 15.85825,4.81058 23.78699,7.21627 7.92872,2.4057 -0.89064,9.62144 -1.33635,14.43255 -0.44572,4.81113 -7.66146,-6.05838 -11.4926,-9.08717" />
    <path
       style="fill:none;stroke:#000000;stroke-width:0.5;stroke-linecap:butt;stroke-linejoin:miter;stroke-miterlimit:4;stroke-dasharray:none;stroke-opacity:1"
       d="m -312.95717,-685.0544 c 0.69659,1.76037 2.04736,3.25312 3.72959,4.12159 1.68224,0.86848 3.68144,1.10521 5.51998,0.65364 1.83855,-0.45158 3.50059,-1.58756 4.58905,-3.13657 1.08847,-1.549 1.59397,-3.49767 1.39575,-5.38045 -0.15866,-1.50706 -0.74343,-2.93014 -1.22911,-4.36559 -0.48569,-1.43544 -0.88046,-2.95782 -0.64179,-4.45429 0.24962,-1.56507 1.20245,-2.9811 2.48916,-3.90638 1.2867,-0.92529 2.88463,-1.37515 4.46944,-1.38661 1.58481,-0.0115 3.1561,0.40046 4.59269,1.06977 1.43659,0.66931 2.74459,1.59107 3.95036,2.6196 2.37358,2.02468 4.37638,4.48267 5.87991,7.21628"
       id="path1071"
       inkscape:connector-curvature="0"
       inkscape:path-effect="#path-effect1073"
       inkscape:original-d="m -312.95717,-685.0544 c 4.9893,-1.06936 10.15651,-2.49478 15.23437,-3.74179 5.07785,-1.24698 -1.24701,-5.88018 -1.8709,-8.81988 -0.62389,-2.93971 10.33471,-1.06934 15.50165,-1.60362 5.16694,-0.53427 3.9202,4.81058 5.87991,7.21628" />
    <path
       style="fill:none;stroke:#000000;stroke-width:0.5;stroke-linecap:butt;stroke-linejoin:miter;stroke-miterlimit:4;stroke-dasharray:none;stroke-opacity:1"
       d="m -268.85769,-685.32168 c 3.18864,-4.16002 6.87606,-7.93737 10.95804,-11.22532 2.72571,-2.1955 5.74641,-4.22406 9.19292,-4.83344 1.72325,-0.3047 3.52911,-0.23551 5.18224,0.33862 1.65312,0.57412 3.14364,1.67155 4.06643,3.15846 0.7894,1.27198 1.14479,2.80798 0.9943,4.29742 -0.15049,1.48944 -0.80595,2.92331 -1.83384,4.01167 -1.0279,1.08836 -2.422,1.82462 -3.90042,2.05992 -1.47841,0.23529 -3.0322,-0.0318 -4.34718,-0.7473"
       id="path1075"
       inkscape:connector-curvature="0"
       inkscape:path-effect="#path-effect1077"
       inkscape:original-d="m -268.85769,-685.32168 c 3.65295,-3.74203 7.30562,-7.48382 10.95804,-11.22532 3.65241,-3.7415 12.29466,-0.89117 18.44159,-1.33636 6.14696,-0.44518 -6.05782,6.41422 -9.08714,9.62171" />
    <path
       sodipodi:nodetypes="ccccccccccccccccccccc"
       inkscape:original-d="m -611.03034,-651.20141 c 15.3592,-0.99707 30.71882,-1.99444 46.07779,-2.99205 13.55457,-0.84529 27.10934,-1.69046 40.66361,-2.53548 6.28377,-0.30106 12.56754,-0.602 18.85091,-0.90278 4.36067,0.0703 8.72147,0.1408 13.0818,0.21141 5.15209,0.26451 10.30452,0.52919 15.45638,0.79399 5.84918,0.6698 11.69863,1.33979 17.54755,2.00991 6.51155,1.15263 13.02328,2.30549 19.53453,3.45844 4.73284,1.20189 9.46565,2.40398 14.19808,3.60618 4.51894,1.67977 9.03783,3.35978 13.55634,5.03987 3.95197,0.98401 7.90376,1.96819 11.85524,2.95249 3.8807,1.14303 7.76136,2.28625 11.64165,3.42959 4.89269,0.84462 9.78534,1.68943 14.67761,2.53435 7.49635,0.91499 14.99294,1.83018 22.48901,2.74548 8.38682,0.888 16.77382,1.77619 25.16033,2.6645 5.91863,0.51488 11.83729,1.02993 17.75553,1.54509 6.87389,0.34298 13.748,0.68612 20.6216,1.02939 7.94102,0.22762 15.83346,-0.0483 23.74979,-0.0722 4.50923,-0.26157 9.01849,-0.52301 13.52734,-0.7843 7.41863,-0.87486 14.83795,-1.74969 22.25653,-2.62433 5.57113,-1.04459 11.14242,-2.08953 16.71317,-3.13468"
       inkscape:path-effect="#path-effect1006"
       inkscape:connector-curvature="0"
       id="path1004"
       d="m -611.03034,-651.20141 c 15.35918,-0.99734 30.7188,-1.99472 45.17558,-2.91597 14.45679,-0.92124 28.01156,-1.76642 37.93058,-2.33946 9.91902,-0.57303 16.20279,-0.87397 21.5248,-0.98919 5.32202,-0.11522 9.68282,-0.0448 14.43902,0.12282 4.75621,0.16756 9.90864,0.43224 15.40916,0.89955 5.50051,0.46731 11.34996,1.13731 17.53019,2.04869 6.18023,0.91137 12.69196,2.06423 18.31399,3.24166 5.62204,1.17742 10.35485,2.37951 14.98052,3.82051 4.62567,1.441 9.14456,3.121 13.37982,4.45304 4.23525,1.33205 8.18704,2.31622 12.10313,3.37989 3.91608,1.06366 7.79674,2.20689 12.18324,3.20086 4.38651,0.99397 9.27916,1.83878 15.47347,2.71873 6.19432,0.87995 13.69091,1.79514 21.63236,2.69679 7.94144,0.90165 16.32844,1.78984 23.48101,2.49143 7.15258,0.70159 13.07124,1.21663 19.4673,1.6457 6.39607,0.42907 13.27018,0.77221 20.67711,0.9317 7.40693,0.15949 15.30014,0.1355 21.51292,-0.007 6.21279,-0.14275 10.72205,-0.40419 16.68579,-0.97228 5.96374,-0.56808 13.38306,-1.44292 19.87788,-2.40274 6.49482,-0.95982 12.06611,-2.00475 17.63692,-3.0496"
       style="fill:none;stroke:#646464;stroke-width:1;stroke-linecap:round;stroke-linejoin:miter;stroke-miterlimit:4;stroke-dasharray:4, 4;stroke-dashoffset:0;stroke-opacity:1" />
    <path
       sodipodi:type="star"
       style="fill:#31688e;fill-opacity:1;stroke:none;stroke-width:1;stroke-linecap:round;stroke-miterlimit:4;stroke-dasharray:4, 4;stroke-dashoffset:0;stroke-opacity:1;paint-order:stroke markers fill"
       id="path1010"
       sodipodi:sides="3"
       sodipodi:cx="-872.37512"
       sodipodi:cy="-913.17578"
       sodipodi:r1="49.368954"
       sodipodi:r2="24.684477"
       sodipodi:arg1="0.52359878"
       sodipodi:arg2="1.5707963"
       inkscape:flatsided="false"
       inkscape:rounded="0"
       inkscape:randomized="0"
       d="m -829.62035,-888.4913 -42.75477,0 -42.75477,0 21.37738,-37.02672 21.37739,-37.02671 21.37738,37.02671 z"
       inkscape:transform-center-x="-1.7310377"
       transform="matrix(0,0.14025534,-0.14025534,0,-624.84756,-720.19539)" />
    <path
       sodipodi:type="star"
       style="fill:#31688e;fill-opacity:1;stroke:none;stroke-width:1;stroke-linecap:round;stroke-miterlimit:4;stroke-dasharray:4, 4;stroke-dashoffset:0;stroke-opacity:1;paint-order:stroke markers fill"
       id="path1012"
       sodipodi:sides="3"
       sodipodi:cx="-872.37512"
       sodipodi:cy="-913.17578"
       sodipodi:r1="49.368954"
       sodipodi:r2="24.684477"
       sodipodi:arg1="0.52359878"
       sodipodi:arg2="1.5707963"
       inkscape:flatsided="false"
       inkscape:rounded="0"
       inkscape:randomized="0"
       d="m -829.62035,-888.4913 -42.75477,0 -42.75477,0 21.37738,-37.02672 21.37739,-37.02671 21.37738,37.02671 z"
       inkscape:transform-center-x="-1.7310377"
       transform="matrix(0,0.14025534,-0.14025534,0,-624.84756,-667.27839)" />
  </g>
</svg>
