<?xml version="1.0" encoding="UTF-8" standalone="no"?>
<!-- Created with Inkscape (http://www.inkscape.org/) -->

<svg
   xmlns:dc="http://purl.org/dc/elements/1.1/"
   xmlns:cc="http://creativecommons.org/ns#"
   xmlns:rdf="http://www.w3.org/1999/02/22-rdf-syntax-ns#"
   xmlns:svg="http://www.w3.org/2000/svg"
   xmlns="http://www.w3.org/2000/svg"
   xmlns:sodipodi="http://sodipodi.sourceforge.net/DTD/sodipodi-0.dtd"
   xmlns:inkscape="http://www.inkscape.org/namespaces/inkscape"
   width="59.111942mm"
   height="59.111942mm"
   viewBox="0 0 59.111942 59.111942"
   version="1.1"
   id="svg8"
   inkscape:version="0.92.4 (5da689c313, 2019-01-14)"
   sodipodi:docname="wave_favicon.svg"
   inkscape:export-filename="D:\Dropbox\Professional\Website\wave_favicon.png"
   inkscape:export-xdpi="299.93073"
   inkscape:export-ydpi="299.93073">
  <defs
     id="defs2">
    <inkscape:path-effect
       effect="bspline"
       id="path-effect4547"
       is_visible="true"
       weight="33.333333"
       steps="2"
       helper_size="0"
       apply_no_weight="true"
       apply_with_weight="true"
       only_selected="false" />
    <inkscape:path-effect
       only_selected="false"
       apply_with_weight="true"
       apply_no_weight="true"
       helper_size="0"
       steps="2"
       weight="33.333333"
       is_visible="true"
       id="path-effect4543"
       effect="bspline" />
    <inkscape:path-effect
       effect="bspline"
       id="path-effect4539"
       is_visible="true"
       weight="33.333333"
       steps="2"
       helper_size="0"
       apply_no_weight="true"
       apply_with_weight="true"
       only_selected="false" />
    <inkscape:path-effect
       effect="bspline"
       id="path-effect4524"
       is_visible="true"
       weight="33.333333"
       steps="2"
       helper_size="0"
       apply_no_weight="true"
       apply_with_weight="true"
       only_selected="false" />
    <inkscape:path-effect
       effect="bspline"
       id="path-effect4520"
       is_visible="true"
       weight="33.333333"
       steps="2"
       helper_size="0"
       apply_no_weight="true"
       apply_with_weight="true"
       only_selected="false" />
  </defs>
  <sodipodi:namedview
     id="base"
     pagecolor="#ffffff"
     bordercolor="#666666"
     borderopacity="1.0"
     inkscape:pageopacity="0.0"
     inkscape:pageshadow="2"
     inkscape:zoom="2.1324673"
     inkscape:cx="190.5017"
     inkscape:cy="83.75181"
     inkscape:document-units="mm"
     inkscape:current-layer="layer1"
     showgrid="false"
     fit-margin-top="0"
     fit-margin-left="0"
     fit-margin-right="0"
     fit-margin-bottom="0"
     inkscape:window-width="1920"
     inkscape:window-height="1001"
     inkscape:window-x="-9"
     inkscape:window-y="-9"
     inkscape:window-maximized="1" />
  <metadata
     id="metadata5">
    <rdf:RDF>
      <cc:Work
         rdf:about="">
        <dc:format>image/svg+xml</dc:format>
        <dc:type
           rdf:resource="http://purl.org/dc/dcmitype/StillImage" />
        <dc:title></dc:title>
      </cc:Work>
    </rdf:RDF>
  </metadata>
  <g
     inkscape:label="Layer 1"
     inkscape:groupmode="layer"
     id="layer1"
     transform="translate(-19.95566,-79.590033)">
    <circle
       style="opacity:1;fill:#000000;fill-opacity:1;stroke:none;stroke-width:0.8880567;stroke-linecap:round;stroke-miterlimit:4;stroke-dasharray:none;stroke-dashoffset:0;stroke-opacity:1"
       id="path827"
       cx="49.511631"
       cy="109.146"
       r="29.555971" />
    <g
       style="stroke:#ffffff;stroke-width:3.96737501;stroke-miterlimit:4;stroke-dasharray:none;stroke-opacity:1"
       transform="matrix(0.75616749,0,0,0.75616749,13.396882,25.152194)"
       id="g823">
      <path
         sodipodi:nodetypes="ccccccccccccccccccccccccccccccccccccccccccccccccccc"
         style="fill:none;stroke:#ffffff;stroke-width:3.96737501;stroke-linecap:round;stroke-linejoin:miter;stroke-miterlimit:4;stroke-dasharray:none;stroke-opacity:1"
         d="m 15.501633,122.50641 c 0.534855,-0.27857 1.069395,-0.55698 1.971037,-1.24157 0.901642,-0.6846 2.171926,-1.7766 3.129569,-2.60062 0.957644,-0.82402 1.603686,-1.38095 2.611196,-2.44413 1.00751,-1.06319 2.377868,-2.63409 3.714088,-4.28767 1.33622,-1.65358 2.63939,-3.39114 3.965799,-5.11727 1.326409,-1.72612 2.693775,-3.46335 3.751662,-4.76064 1.057887,-1.2973 1.815279,-2.166069 2.744984,-3.157005 0.929706,-0.990937 2.03255,-2.10492 3.301923,-3.218391 1.269374,-1.113471 2.706292,-2.227361 4.153861,-3.218376 1.44757,-0.991014 2.906715,-1.859818 4.224431,-2.510543 1.317717,-0.650725 2.502017,-1.086458 3.526428,-1.398222 1.024411,-0.311764 1.893271,-0.50113 2.850781,-0.595755 0.957509,-0.09462 2.004685,-0.09462 2.990124,-0.09462 0.985439,0 1.909981,0 2.717221,0.08352 0.807241,0.08352 1.497883,0.250611 2.360778,0.523401 0.862896,0.272789 1.89885,0.651526 2.750682,1.057961 0.851832,0.406435 1.520101,0.840811 2.199355,1.358604 0.679254,0.517793 1.369766,1.119206 1.971086,1.7929 0.60132,0.673695 1.113601,1.419844 1.585751,2.280314 0.47215,0.860471 0.908727,1.845569 1.196169,2.682466 0.287441,0.836897 0.427905,1.530327 0.567158,2.232152 0.139252,0.701827 0.277083,1.411007 0.346035,2.177827 0.06895,0.76682 0.06895,1.59063 0.03555,2.28672 -0.0334,0.69609 -0.100197,1.26385 -0.172647,1.4309 -0.07245,0.16706 -0.150363,-0.0667 -0.285686,-0.45565 -0.135323,-0.38896 -0.321265,-0.91397 -0.56706,-1.53947 -0.245795,-0.62551 -0.54488,-1.33445 -0.917881,-1.93571 -0.373001,-0.60125 -0.81853,-1.09133 -1.302937,-1.57574 -0.484408,-0.484406 -1.007823,-0.963277 -1.581279,-1.319618 -0.573457,-0.356341 -1.197073,-0.590196 -1.904277,-0.762832 -0.707204,-0.172636 -1.497692,-0.283972 -2.360845,-0.272854 -0.863153,0.01112 -1.79833,0.144715 -2.622514,0.384143 -0.824183,0.239428 -1.536677,0.584542 -2.207585,0.970566 -0.670907,0.386024 -1.289083,0.805505 -1.89619,1.401435 -0.607108,0.59593 -1.197037,1.36395 -1.64261,2.23275 -0.445573,0.86881 -0.746136,1.83729 -0.92436,2.64478 -0.178225,0.8075 -0.233889,1.45319 -0.245039,1.99899 -0.01115,0.54579 0.02224,0.99104 0.100222,1.58705 0.07798,0.59601 0.200411,1.34173 0.451021,2.13257 0.25061,0.79083 0.629134,1.62581 1.147029,2.46113 0.517894,0.83532 1.174838,1.67042 1.787384,2.28852 0.612545,0.61811 1.180465,1.01899 1.965544,1.49783 0.785078,0.47884 1.787428,1.03571 2.584042,1.39071 0.796613,0.355 1.408455,0.51362 2.221263,0.66393 0.812807,0.15031 1.837653,0.29512 2.650562,0.34521 0.812909,0.0501 1.414393,0.006 2.221544,-0.10579 0.807151,-0.11134 1.821024,-0.2896 2.806446,-0.55128 0.985421,-0.26169 1.943423,-0.60701 2.706157,-0.94665 0.762734,-0.33963 1.330871,-0.67383 1.804031,-1.02205 0.47316,-0.34822 0.851999,-0.71091 1.23037,-1.07315"
         id="path821"
         inkscape:connector-curvature="0"
         inkscape:path-effect="#path-effect4539"
         inkscape:original-d="m 15.501633,122.50641 c 0.534803,-0.27867 1.069342,-0.55708 1.603617,-0.83522 1.269043,-1.09097 2.539325,-2.18297 3.80859,-3.27405 0.646022,-0.55696 1.292068,-1.11389 1.937704,-1.67044 1.369422,-1.56978 2.739777,-3.14068 4.10927,-4.71062 1.302969,-1.73721 2.606143,-3.47477 3.908816,-5.21176 1.336384,-1.72609 2.717504,-3.45249 4.075862,-5.17835 0.757398,-0.86874 1.514789,-1.737513 2.271789,-2.605873 1.102394,-1.113528 2.205238,-2.227511 3.307461,-3.34087 1.436494,-1.113621 2.873412,-2.227511 4.309721,-3.34087 1.458812,-0.868712 2.917957,-1.737516 4.376539,-2.605878 1.180452,-0.42335 2.361144,-0.868889 3.541321,-1.302938 0.868656,-0.189529 1.737516,-0.378897 2.605878,-0.567947 1.0467,-2.65e-4 2.093876,-2.65e-4 3.140417,0 0.924337,-2.65e-4 1.848879,-2.65e-4 2.77292,0 0.690515,0.16673 1.381157,0.333822 2.071338,0.501129 1.035651,0.378264 2.071606,0.756999 3.10701,1.135896 0.668343,0.433985 1.336612,0.868362 2.004521,1.30294 0.690644,0.601033 1.381156,1.202447 2.071338,1.804067 0.512516,0.745842 1.024797,1.491991 1.5368,2.238383 0.445749,0.968661 0.868892,1.959713 1.302938,2.939965 0.14092,0.693602 0.281385,1.387032 0.421626,2.081438 0.138263,0.709248 0.276094,1.418428 0.413593,2.128058 2.64e-4,0.82409 2.64e-4,1.6479 0,2.47224 -0.06658,0.56787 -0.133372,1.13563 -0.200451,1.70385 -0.07773,-0.23425 -0.155644,-0.46799 -0.233863,-0.70159 -0.188923,-0.54557 -0.378367,-1.06934 -0.567947,-1.60361 -0.311462,-0.71278 -0.601091,-1.42571 -0.902036,-2.13816 -0.445103,-0.49017 -0.890632,-0.98025 -1.336347,-1.46998 -0.523123,-0.479113 -1.04654,-0.957982 -1.570206,-1.436577 -0.62338,-0.234129 -1.246995,-0.467987 -1.870888,-0.701582 -0.790593,-0.111652 -1.581081,-0.222988 -2.372018,-0.334087 -0.935443,0.133408 -1.87062,0.267004 -2.80633,0.400905 -0.712679,0.345067 -1.425173,0.690181 -2.138156,1.035669 -0.623641,0.434242 -1.246992,0.846092 -1.870887,1.269532 -0.590243,0.76851 -1.180174,1.53653 -1.770661,2.3052 -0.300527,0.96896 -0.601091,1.93744 -0.902033,2.90655 -0.05543,0.64585 -0.111098,1.29154 -0.167045,1.93771 0.03369,0.44538 0.06708,0.89063 0.100227,1.33635 0.12283,0.74627 0.245261,1.49199 0.367496,2.23838 0.379005,0.83519 0.757528,1.67017 1.135896,2.50565 0.657397,0.83507 1.314339,1.67017 1.971111,2.50565 0.568238,0.40066 1.136161,0.80154 1.703845,1.20271 1.002433,0.5565 2.004785,1.11336 3.006781,1.67044 0.590434,0.15563 1.202978,0.31155 1.804069,0.46772 1.024485,0.14446 2.04933,0.28928 3.073601,0.43431 0.601488,-0.0448 1.202976,-0.0893 1.80407,-0.13363 1.013185,-0.17836 2.027057,-0.35663 3.040189,-0.53454 0.957697,-0.34538 1.915697,-0.69071 2.873148,-1.03567 0.568023,-0.33424 1.13616,-0.66844 1.703842,-1.00226 0.378678,-0.36255 0.757515,-0.72524 1.135896,-1.08747" />
    </g>
  </g>
</svg>
