<?xml version="1.0" encoding="UTF-8" standalone="no"?>
<!-- Created with Inkscape (http://www.inkscape.org/) -->

<svg
   xmlns:dc="http://purl.org/dc/elements/1.1/"
   xmlns:cc="http://creativecommons.org/ns#"
   xmlns:rdf="http://www.w3.org/1999/02/22-rdf-syntax-ns#"
   xmlns:svg="http://www.w3.org/2000/svg"
   xmlns="http://www.w3.org/2000/svg"
   xmlns:sodipodi="http://sodipodi.sourceforge.net/DTD/sodipodi-0.dtd"
   xmlns:inkscape="http://www.inkscape.org/namespaces/inkscape"
   width="135.75838mm"
   height="28.47333mm"
   viewBox="0 0 135.75838 28.47333"
   version="1.1"
   id="svg8"
   inkscape:version="0.92.4 (5da689c313, 2019-01-14)"
   sodipodi:docname="wave_header_full.svg"
   inkscape:export-filename="D:\Dropbox\Professional\Website\wave_header.png"
   inkscape:export-xdpi="299.93073"
   inkscape:export-ydpi="299.93073">
  <defs
     id="defs2">
    <inkscape:path-effect
       effect="bspline"
       id="path-effect4547"
       is_visible="true"
       weight="33.333333"
       steps="2"
       helper_size="0"
       apply_no_weight="true"
       apply_with_weight="true"
       only_selected="false" />
    <inkscape:path-effect
       only_selected="false"
       apply_with_weight="true"
       apply_no_weight="true"
       helper_size="0"
       steps="2"
       weight="33.333333"
       is_visible="true"
       id="path-effect4543"
       effect="bspline" />
    <inkscape:path-effect
       effect="bspline"
       id="path-effect4539"
       is_visible="true"
       weight="33.333333"
       steps="2"
       helper_size="0"
       apply_no_weight="true"
       apply_with_weight="true"
       only_selected="false" />
    <inkscape:path-effect
       effect="bspline"
       id="path-effect4524"
       is_visible="true"
       weight="33.333333"
       steps="2"
       helper_size="0"
       apply_no_weight="true"
       apply_with_weight="true"
       only_selected="false" />
    <inkscape:path-effect
       effect="bspline"
       id="path-effect4520"
       is_visible="true"
       weight="33.333333"
       steps="2"
       helper_size="0"
       apply_no_weight="true"
       apply_with_weight="true"
       only_selected="false" />
  </defs>
  <sodipodi:namedview
     id="base"
     pagecolor="#ffffff"
     bordercolor="#666666"
     borderopacity="1.0"
     inkscape:pageopacity="0.0"
     inkscape:pageshadow="2"
     inkscape:zoom="1.5078821"
     inkscape:cx="133.5149"
     inkscape:cy="48.833505"
     inkscape:document-units="mm"
     inkscape:current-layer="layer1"
     showgrid="false"
     fit-margin-top="0"
     fit-margin-left="0"
     fit-margin-right="0"
     fit-margin-bottom="0"
     inkscape:window-width="2560"
     inkscape:window-height="1361"
     inkscape:window-x="-9"
     inkscape:window-y="-9"
     inkscape:window-maximized="1" />
  <metadata
     id="metadata5">
    <rdf:RDF>
      <cc:Work
         rdf:about="">
        <dc:format>image/svg+xml</dc:format>
        <dc:type
           rdf:resource="http://purl.org/dc/dcmitype/StillImage" />
        <dc:title></dc:title>
      </cc:Work>
    </rdf:RDF>
  </metadata>
  <g
     inkscape:label="Layer 1"
     inkscape:groupmode="layer"
     id="layer1"
     transform="translate(-28.064556,-91.324521)">
    <g
       id="g4563"
       transform="matrix(0.75616749,0,0,0.75616749,17.491317,26.020711)">
      <path
         inkscape:original-d="m 15.501633,122.50641 c 0.534803,-0.27867 1.069342,-0.55708 1.603617,-0.83522 1.269043,-1.09097 2.539325,-2.18297 3.80859,-3.27405 0.646022,-0.55696 1.292068,-1.11389 1.937704,-1.67044 1.369422,-1.56978 2.739777,-3.14068 4.10927,-4.71062 1.302969,-1.73721 2.606143,-3.47477 3.908816,-5.21176 1.336384,-1.72609 2.717504,-3.45249 4.075862,-5.17835 0.757398,-0.86874 1.514789,-1.737513 2.271789,-2.605873 1.102394,-1.113528 2.205238,-2.227511 3.307461,-3.34087 1.436494,-1.113621 2.873412,-2.227511 4.309721,-3.34087 1.458812,-0.868712 2.917957,-1.737516 4.376539,-2.605878 1.180452,-0.42335 2.361144,-0.868889 3.541321,-1.302938 0.868656,-0.189529 1.737516,-0.378897 2.605878,-0.567947 1.0467,-2.65e-4 2.093876,-2.65e-4 3.140417,0 0.924337,-2.65e-4 1.848879,-2.65e-4 2.77292,0 0.690515,0.16673 1.381157,0.333822 2.071338,0.501129 1.035651,0.378264 2.071606,0.756999 3.10701,1.135896 0.668343,0.433985 1.336612,0.868362 2.004521,1.30294 0.690644,0.601033 1.381156,1.202447 2.071338,1.804067 0.512516,0.745842 1.024797,1.491991 1.5368,2.238383 0.445749,0.968661 0.868892,1.959713 1.302938,2.939965 0.14092,0.693602 0.281385,1.387032 0.421626,2.081438 0.138263,0.709248 0.276094,1.418428 0.413593,2.128058 2.64e-4,0.82409 2.64e-4,1.6479 0,2.47224 -0.06658,0.56787 -0.133372,1.13563 -0.200451,1.70385 -0.07773,-0.23425 -0.155644,-0.46799 -0.233863,-0.70159 -0.188923,-0.54557 -0.378367,-1.06934 -0.567947,-1.60361 -0.311462,-0.71278 -0.601091,-1.42571 -0.902036,-2.13816 -0.445103,-0.49017 -0.890632,-0.98025 -1.336347,-1.46998 -0.523123,-0.479113 -1.04654,-0.957982 -1.570206,-1.436577 -0.62338,-0.234129 -1.246995,-0.467987 -1.870888,-0.701582 -0.790593,-0.111652 -1.581081,-0.222988 -2.372018,-0.334087 -0.935443,0.133408 -1.87062,0.267004 -2.80633,0.400905 -0.712679,0.345067 -1.425173,0.690181 -2.138156,1.035669 -0.623641,0.434242 -1.246992,0.846092 -1.870887,1.269532 -0.590243,0.76851 -1.180174,1.53653 -1.770661,2.3052 -0.300527,0.96896 -0.601091,1.93744 -0.902033,2.90655 -0.05543,0.64585 -0.111098,1.29154 -0.167045,1.93771 0.03369,0.44538 0.06708,0.89063 0.100227,1.33635 0.12283,0.74627 0.245261,1.49199 0.367496,2.23838 0.379005,0.83519 0.757528,1.67017 1.135896,2.50565 0.657397,0.83507 1.314339,1.67017 1.971111,2.50565 0.568238,0.40066 1.136161,0.80154 1.703845,1.20271 1.002433,0.5565 2.004785,1.11336 3.006781,1.67044 0.590434,0.15563 1.202978,0.31155 1.804069,0.46772 1.024485,0.14446 2.04933,0.28928 3.073601,0.43431 0.601488,-0.0448 1.202976,-0.0893 1.80407,-0.13363 1.013185,-0.17836 2.027057,-0.35663 3.040189,-0.53454 0.957697,-0.34538 1.915697,-0.69071 2.873148,-1.03567 0.568023,-0.33424 1.13616,-0.66844 1.703842,-1.00226 0.378678,-0.36255 0.757515,-0.72524 1.135896,-1.08747"
         inkscape:path-effect="#path-effect4539"
         inkscape:connector-curvature="0"
         id="path4537"
         d="m 15.501633,122.50641 c 0.534855,-0.27857 1.069395,-0.55698 1.971037,-1.24157 0.901642,-0.6846 2.171926,-1.7766 3.129569,-2.60062 0.957644,-0.82402 1.603686,-1.38095 2.611196,-2.44413 1.00751,-1.06319 2.377868,-2.63409 3.714088,-4.28767 1.33622,-1.65358 2.63939,-3.39114 3.965799,-5.11727 1.326409,-1.72612 2.693775,-3.46335 3.751662,-4.76064 1.057887,-1.2973 1.815279,-2.166069 2.744984,-3.157005 0.929706,-0.990937 2.03255,-2.10492 3.301923,-3.218391 1.269374,-1.113471 2.706292,-2.227361 4.153861,-3.218376 1.44757,-0.991014 2.906715,-1.859818 4.224431,-2.510543 1.317717,-0.650725 2.502017,-1.086458 3.526428,-1.398222 1.024411,-0.311764 1.893271,-0.50113 2.850781,-0.595755 0.957509,-0.09462 2.004685,-0.09462 2.990124,-0.09462 0.985439,0 1.909981,0 2.717221,0.08352 0.807241,0.08352 1.497883,0.250611 2.360778,0.523401 0.862896,0.272789 1.89885,0.651526 2.750682,1.057961 0.851832,0.406435 1.520101,0.840811 2.199355,1.358604 0.679254,0.517793 1.369766,1.119206 1.971086,1.7929 0.60132,0.673695 1.113601,1.419844 1.585751,2.280314 0.47215,0.860471 0.908727,1.845569 1.196169,2.682466 0.287441,0.836897 0.427905,1.530327 0.567158,2.232152 0.139252,0.701827 0.277083,1.411007 0.346035,2.177827 0.06895,0.76682 0.06895,1.59063 0.03555,2.28672 -0.0334,0.69609 -0.100197,1.26385 -0.172647,1.4309 -0.07245,0.16706 -0.150363,-0.0667 -0.285686,-0.45565 -0.135323,-0.38896 -0.321265,-0.91397 -0.56706,-1.53947 -0.245795,-0.62551 -0.54488,-1.33445 -0.917881,-1.93571 -0.373001,-0.60125 -0.81853,-1.09133 -1.302937,-1.57574 -0.484408,-0.484406 -1.007823,-0.963277 -1.581279,-1.319618 -0.573457,-0.356341 -1.197073,-0.590196 -1.904277,-0.762832 -0.707204,-0.172636 -1.497692,-0.283972 -2.360845,-0.272854 -0.863153,0.01112 -1.79833,0.144715 -2.622514,0.384143 -0.824183,0.239428 -1.536677,0.584542 -2.207585,0.970566 -0.670907,0.386024 -1.289083,0.805505 -1.89619,1.401435 -0.607108,0.59593 -1.197037,1.36395 -1.64261,2.23275 -0.445573,0.86881 -0.746136,1.83729 -0.92436,2.64478 -0.178225,0.8075 -0.233889,1.45319 -0.245039,1.99899 -0.01115,0.54579 0.02224,0.99104 0.100222,1.58705 0.07798,0.59601 0.200411,1.34173 0.451021,2.13257 0.25061,0.79083 0.629134,1.62581 1.147029,2.46113 0.517894,0.83532 1.174838,1.67042 1.787384,2.28852 0.612545,0.61811 1.180465,1.01899 1.965544,1.49783 0.785078,0.47884 1.787428,1.03571 2.584042,1.39071 0.796613,0.355 1.408455,0.51362 2.221263,0.66393 0.812807,0.15031 1.837653,0.29512 2.650562,0.34521 0.812909,0.0501 1.414393,0.006 2.221544,-0.10579 0.807151,-0.11134 1.821024,-0.2896 2.806446,-0.55128 0.985421,-0.26169 1.943423,-0.60701 2.706157,-0.94665 0.762734,-0.33963 1.330871,-0.67383 1.804031,-1.02205 0.47316,-0.34822 0.851999,-0.71091 1.23037,-1.07315"
         style="fill:none;stroke:#d1edf5;stroke-width:3;stroke-linecap:round;stroke-linejoin:miter;stroke-miterlimit:4;stroke-dasharray:none;stroke-opacity:1"
         sodipodi:nodetypes="ccccccccccccccccccccccccccccccccccccccccccccccccccc" />
      <path
         sodipodi:nodetypes="ccccccccccccccccccccccccccccccccccccccccccccccc"
         style="fill:none;stroke:#d1edf5;stroke-width:3;stroke-linecap:round;stroke-linejoin:miter;stroke-miterlimit:4;stroke-dasharray:none;stroke-opacity:1"
         d="m 79.212005,116.20718 c 2.772677,-3.08947 5.546089,-6.17976 7.607478,-8.58214 2.061388,-2.40238 3.428754,-4.13961 4.486641,-5.4369 1.057887,-1.2973 1.815279,-2.16607 2.744984,-3.157001 0.929706,-0.990936 2.03255,-2.104919 3.301923,-3.21839 1.269373,-1.113471 2.706289,-2.22736 4.153859,-3.218375 1.44757,-0.991014 2.90672,-1.85982 4.22443,-2.510545 1.31772,-0.650724 2.50202,-1.086459 3.52643,-1.398222 1.02441,-0.311763 1.89327,-0.50113 2.85078,-0.595754 0.95751,-0.09462 2.00469,-0.09462 2.99013,-0.09462 0.98543,0 1.90998,0 2.71722,0.08352 0.80723,0.08352 1.49788,0.25061 2.36077,0.523401 0.8629,0.27279 1.89885,0.651525 2.75069,1.05796 0.85183,0.406436 1.5201,0.840812 2.19935,1.358605 0.67926,0.517793 1.36977,1.119207 1.97109,1.792902 0.60131,0.673696 1.1136,1.419844 1.58575,2.280314 0.47214,0.86047 0.90872,1.845571 1.201,2.6728 0.29228,0.827229 0.44241,1.501332 0.58166,2.203151 0.13926,0.701818 0.26742,1.430328 0.33154,2.206818 0.0641,0.77649 0.0641,1.6003 0.0307,2.29639 -0.0334,0.6961 -0.1002,1.26385 -0.17265,1.43091 -0.0724,0.16705 -0.15036,-0.0667 -0.28568,-0.45566 -0.13533,-0.38896 -0.32127,-0.91397 -0.56706,-1.53947 -0.2458,-0.62551 -0.54489,-1.33445 -0.91789,-1.93571 -0.373,-0.60125 -0.81853,-1.09133 -1.30293,-1.57574 -0.48441,-0.484405 -1.00782,-0.963271 -1.58128,-1.319612 -0.57346,-0.356342 -1.19707,-0.590195 -1.90428,-0.762832 -0.7072,-0.172637 -1.49769,-0.283974 -2.36084,-0.272855 -0.86316,0.01112 -1.79833,0.144715 -2.62251,0.384143 -0.82419,0.239428 -1.53669,0.584544 -2.20759,0.970566 -0.67091,0.386022 -1.28908,0.8055 -1.89619,1.40143 -0.60711,0.59593 -1.19704,1.36395 -1.64261,2.23275 -0.44557,0.86881 -0.74614,1.83729 -0.92436,2.64478 -0.17823,0.8075 -0.23389,1.45319 -0.24504,1.99899 -0.0112,0.54579 0.0222,0.99104 0.10022,1.58705 0.078,0.59601 0.20041,1.34173 0.45102,2.13257 0.25061,0.79083 0.62914,1.62581 1.14703,2.46113 0.51789,0.83532 1.17484,1.67042 1.78738,2.28852 0.61255,0.61811 1.18047,1.01899 1.96555,1.49783 0.78508,0.47884 1.78743,1.0357 2.58404,1.3907 0.79661,0.355 1.40846,0.51363 2.22126,0.66394 0.81281,0.15031 1.83766,0.29512 2.65057,0.34521 0.81291,0.0501 1.41439,0.006 2.22154,-0.10579 0.80715,-0.11134 1.82103,-0.2896 2.80645,-0.55128 0.98542,-0.26169 1.94342,-0.60701 2.66749,-0.9805 0.72406,-0.37349 1.21482,-0.7754 1.63733,-1.15761 0.42251,-0.38221 0.77667,-0.74455 1.13072,-1.10678"
         id="path4541"
         inkscape:connector-curvature="0"
         inkscape:path-effect="#path-effect4543"
         inkscape:original-d="m 79.212005,116.20718 c 2.772701,-3.08945 5.546112,-6.17974 8.318765,-9.26923 1.336384,-1.72609 2.717504,-3.45249 4.075862,-5.17835 0.757398,-0.86874 1.514789,-1.73751 2.271789,-2.605868 1.102394,-1.113528 2.205238,-2.227511 3.307461,-3.34087 1.436494,-1.113621 2.873408,-2.227511 4.309718,-3.34087 1.45881,-0.868712 2.91796,-1.737516 4.37654,-2.605878 1.18045,-0.42335 2.36115,-0.868889 3.54132,-1.302938 0.86866,-0.189529 1.73752,-0.378897 2.60588,-0.567947 1.0467,-2.65e-4 2.09388,-2.65e-4 3.14042,0 0.92433,-2.65e-4 1.84888,-2.65e-4 2.77292,0 0.69051,0.16673 1.38115,0.333822 2.07134,0.501129 1.03565,0.378264 2.0716,0.756999 3.10701,1.135896 0.66834,0.433985 1.33661,0.868362 2.00452,1.30294 0.69064,0.601033 1.38115,1.202447 2.07133,1.804067 0.51252,0.745842 1.0248,1.491991 1.5368,2.238383 0.44575,0.968661 0.8689,1.959713 1.30294,2.939965 0.15059,0.674261 0.30072,1.348364 0.45064,2.023426 0.12859,0.728595 0.25675,1.457105 0.38458,2.186065 2.7e-4,0.82409 2.7e-4,1.6479 0,2.47224 -0.0666,0.56787 -0.13337,1.13563 -0.20045,1.70385 -0.0777,-0.23425 -0.15564,-0.46799 -0.23386,-0.70159 -0.18893,-0.54557 -0.37837,-1.06934 -0.56795,-1.60361 -0.31146,-0.71278 -0.60109,-1.42571 -0.90204,-2.13816 -0.4451,-0.49017 -0.89063,-0.98025 -1.33634,-1.46998 -0.52313,-0.479108 -1.04654,-0.957977 -1.57021,-1.436572 -0.62338,-0.234129 -1.24699,-0.467987 -1.87089,-0.701582 -0.79059,-0.111652 -1.58108,-0.222988 -2.37201,-0.334087 -0.93545,0.133408 -1.87062,0.267004 -2.80633,0.400905 -0.71268,0.345067 -1.42518,0.690181 -2.13816,1.035669 -0.62364,0.434242 -1.24699,0.846087 -1.87089,1.269527 -0.59024,0.76851 -1.18017,1.53653 -1.77066,2.3052 -0.30053,0.96896 -0.60109,1.93744 -0.90203,2.90655 -0.0554,0.64585 -0.1111,1.29154 -0.16705,1.93771 0.0337,0.44538 0.0671,0.89063 0.10023,1.33635 0.12283,0.74627 0.24526,1.49199 0.3675,2.23838 0.379,0.83519 0.75752,1.67017 1.13589,2.50565 0.6574,0.83507 1.31434,1.67017 1.97111,2.50565 0.56824,0.40066 1.13616,0.80154 1.70385,1.20271 1.00243,0.5565 2.00478,1.11336 3.00678,1.67044 0.59043,0.15563 1.20298,0.31155 1.80407,0.46772 1.02448,0.14446 2.04933,0.28928 3.0736,0.43431 0.60149,-0.0448 1.20298,-0.0893 1.80407,-0.13363 1.01318,-0.17836 2.02706,-0.35663 3.04019,-0.53454 0.9577,-0.34538 1.9157,-0.69071 2.87315,-1.03567 0.4907,-0.40191 0.98146,-0.80381 1.47179,-1.2053 0.35472,-0.3629 0.70888,-0.72524 1.06293,-1.08747" />
      <path
         sodipodi:nodetypes="ccccccccccccccccccccccccccccccccccccccccccccccc"
         inkscape:original-d="m 135.56813,116.13777 c 2.6962,-3.11085 5.3931,-6.22256 8.08924,-9.33345 1.33638,-1.72609 2.7175,-3.45249 4.07586,-5.17835 0.7574,-0.86874 1.51479,-1.737515 2.27179,-2.605873 1.1024,-1.113528 2.20524,-2.227511 3.30746,-3.34087 1.4365,-1.113621 2.87341,-2.227511 4.30972,-3.34087 1.45881,-0.868712 2.91796,-1.737516 4.37654,-2.605878 1.18045,-0.42335 2.36115,-0.868889 3.54132,-1.302938 0.86866,-0.189529 1.73752,-0.378897 2.60588,-0.567947 1.0467,-2.65e-4 2.09388,-2.65e-4 3.14042,0 0.92433,-2.65e-4 1.84888,-2.65e-4 2.77292,0 0.69051,0.16673 1.38115,0.333822 2.07134,0.501129 1.03565,0.378264 2.0716,0.756999 3.10701,1.135896 0.66834,0.433985 1.33661,0.868362 2.00452,1.30294 0.69064,0.601033 1.38115,1.202447 2.07133,1.804067 0.51252,0.745842 1.0248,1.491991 1.5368,2.238383 0.44575,0.968661 0.8689,1.959713 1.30294,2.939965 0.16026,0.722614 0.32005,1.44503 0.47964,2.168456 0.11892,0.68024 0.23742,1.36042 0.35558,2.04104 2.7e-4,0.82409 2.7e-4,1.6479 0,2.47224 -0.0666,0.56787 -0.13337,1.13563 -0.20045,1.70385 -0.0777,-0.23425 -0.15564,-0.46799 -0.23386,-0.70159 -0.18893,-0.54557 -0.37837,-1.06934 -0.56795,-1.60361 -0.31146,-0.71278 -0.60109,-1.42571 -0.90204,-2.13816 -0.4451,-0.49017 -0.89063,-0.98025 -1.33634,-1.46998 -0.52313,-0.479113 -1.04654,-0.957982 -1.57021,-1.436577 -0.62338,-0.234129 -1.24699,-0.467987 -1.87089,-0.701582 -0.79059,-0.111652 -1.58108,-0.222988 -2.37201,-0.334087 -0.93545,0.133408 -1.87062,0.267004 -2.80633,0.400905 -0.71268,0.345067 -1.42518,0.690181 -2.13816,1.035669 -0.62364,0.434242 -1.24699,0.846092 -1.87089,1.269532 -0.59024,0.76851 -1.18017,1.53653 -1.77066,2.3052 -0.30053,0.96896 -0.60109,1.93744 -0.90203,2.90655 -0.0554,0.64585 -0.1111,1.29154 -0.16705,1.93771 0.0337,0.44538 0.0671,0.89063 0.10023,1.33635 0.12283,0.74627 0.24526,1.49199 0.3675,2.23838 0.379,0.83519 0.75752,1.67017 1.13589,2.50565 0.6574,0.83507 1.31434,1.67017 1.97111,2.50565 0.56824,0.40066 1.13616,0.80154 1.70385,1.20271 1.00243,0.5565 2.00478,1.11336 3.00678,1.67044 0.59043,0.15563 1.20298,0.31155 1.80407,0.46772 1.02448,0.14446 2.04933,0.28928 3.0736,0.43431 0.60149,-0.0448 1.20298,-0.0893 1.80407,-0.13363 1.01318,-0.17836 2.02706,-0.35663 3.04019,-0.53454 0.9577,-0.34538 1.9157,-0.69071 2.87315,-1.03567 0.56802,-0.33424 1.13616,-0.66844 1.70384,-1.00226 0.37869,-0.25626 0.75753,-0.51253 1.13589,-0.7684"
         inkscape:path-effect="#path-effect4547"
         inkscape:connector-curvature="0"
         id="path4545"
         d="m 135.56813,116.13777 c 2.69617,-3.11087 5.39307,-6.22258 7.41621,-8.63566 2.02313,-2.41308 3.39049,-4.15031 4.44838,-5.4476 1.05789,-1.2973 1.81528,-2.16607 2.74499,-3.157008 0.92971,-0.990937 2.03255,-2.104918 3.30192,-3.21839 1.26938,-1.113472 2.70629,-2.227358 4.15386,-3.218373 1.44757,-0.991014 2.90672,-1.85982 4.22443,-2.510545 1.31772,-0.650724 2.50202,-1.086459 3.52643,-1.398222 1.02441,-0.311763 1.89327,-0.50113 2.85078,-0.595754 0.95751,-0.09462 2.00469,-0.09462 2.99013,-0.09462 0.98543,0 1.90998,0 2.71722,0.08352 0.80723,0.08352 1.49788,0.25061 2.36077,0.523401 0.8629,0.27279 1.89885,0.651525 2.75069,1.05796 0.85183,0.406436 1.5201,0.840812 2.19935,1.358605 0.67926,0.517793 1.36977,1.119207 1.97109,1.792902 0.60131,0.673696 1.1136,1.419844 1.58575,2.280314 0.47214,0.86047 0.90872,1.845571 1.20583,2.696976 0.29711,0.851406 0.45691,1.573821 0.59616,2.275645 0.13926,0.701823 0.25776,1.382003 0.31704,2.134323 0.0593,0.75232 0.0593,1.57613 0.0259,2.27222 -0.0334,0.6961 -0.1002,1.26385 -0.17265,1.43091 -0.0724,0.16705 -0.15036,-0.0667 -0.28568,-0.45566 -0.13533,-0.38896 -0.32127,-0.91397 -0.56706,-1.53947 -0.2458,-0.62551 -0.54489,-1.33445 -0.91789,-1.93571 -0.373,-0.60125 -0.81853,-1.09133 -1.30293,-1.57574 -0.48441,-0.484409 -1.00782,-0.963275 -1.58128,-1.319617 -0.57346,-0.356342 -1.19707,-0.590195 -1.90428,-0.762832 -0.7072,-0.172637 -1.49769,-0.283974 -2.36084,-0.272855 -0.86316,0.01112 -1.79833,0.144715 -2.62251,0.384143 -0.82419,0.239428 -1.53669,0.584544 -2.20759,0.970567 -0.67091,0.386022 -1.28908,0.805494 -1.89619,1.401434 -0.60711,0.59593 -1.19704,1.36395 -1.64261,2.23275 -0.44557,0.86881 -0.74614,1.83729 -0.92436,2.64478 -0.17823,0.8075 -0.23389,1.45319 -0.24504,1.99899 -0.0111,0.54579 0.0222,0.99104 0.10022,1.58705 0.078,0.59601 0.20041,1.34173 0.45102,2.13257 0.25061,0.79083 0.62914,1.62581 1.14703,2.46113 0.51789,0.83532 1.17484,1.67042 1.78738,2.28852 0.61255,0.61811 1.18047,1.01899 1.96555,1.49783 0.78508,0.47884 1.78743,1.0357 2.58404,1.3907 0.79661,0.355 1.40846,0.51363 2.22126,0.66394 0.81281,0.15031 1.83766,0.29512 2.65057,0.34521 0.81291,0.0501 1.41439,0.006 2.22154,-0.10579 0.80715,-0.11134 1.82103,-0.2896 2.80645,-0.55128 0.98542,-0.26169 1.94342,-0.60701 2.70616,-0.94665 0.76273,-0.33963 1.33087,-0.67383 1.80405,-0.96888 0.47318,-0.29505 0.85202,-0.55132 1.23034,-0.80725"
         style="fill:none;stroke:#d1edf5;stroke-width:3;stroke-linecap:round;stroke-linejoin:miter;stroke-miterlimit:4;stroke-dasharray:none;stroke-opacity:1" />
    </g>
  </g>
</svg>
